<mxfile host="app.diagrams.net" agent="Mozilla/5.0 (Windows NT 10.0; Win64; x64) AppleWebKit/537.36 (KHTML, like Gecko) Chrome/138.0.0.0 Safari/537.36 Edg/138.0.0.0" version="28.0.7">
  <diagram name="Page-1" id="5kZRFZE-ZPsKv_8Gr65R">
    <mxGraphModel dx="1233" dy="654" grid="1" gridSize="10" guides="1" tooltips="1" connect="1" arrows="1" fold="1" page="1" pageScale="1" pageWidth="850" pageHeight="1100" math="0" shadow="0">
      <root>
        <mxCell id="0" />
        <mxCell id="1" parent="0" />
        <mxCell id="paAZpw1mSlMERvi2zi1C-50" style="edgeStyle=orthogonalEdgeStyle;rounded=0;orthogonalLoop=1;jettySize=auto;html=1;entryX=0;entryY=0.5;entryDx=0;entryDy=0;entryPerimeter=0;" edge="1" parent="1" source="paAZpw1mSlMERvi2zi1C-18" target="paAZpw1mSlMERvi2zi1C-6">
          <mxGeometry relative="1" as="geometry">
            <mxPoint x="350" y="285.5" as="targetPoint" />
            <Array as="points">
              <mxPoint x="320" y="286" />
              <mxPoint x="320" y="286" />
            </Array>
          </mxGeometry>
        </mxCell>
        <mxCell id="8da-QUiCPAsXcpiTib8v-3" value="AGA/DFS Vendor Environment (Malaysia)" style="text;html=1;align=center;verticalAlign=middle;resizable=0;points=[];autosize=1;strokeColor=none;fillColor=none;" parent="1" vertex="1">
          <mxGeometry x="100" y="90" width="250" height="30" as="geometry" />
        </mxCell>
        <mxCell id="paAZpw1mSlMERvi2zi1C-28" value="" style="rounded=1;arcSize=10;dashed=0;fillColor=none;gradientColor=none;strokeWidth=2;" vertex="1" parent="1">
          <mxGeometry x="410" y="120" width="390" height="340" as="geometry" />
        </mxCell>
        <mxCell id="paAZpw1mSlMERvi2zi1C-10" value="" style="group" vertex="1" connectable="0" parent="1">
          <mxGeometry x="666" y="180" width="110" height="100" as="geometry" />
        </mxCell>
        <mxCell id="paAZpw1mSlMERvi2zi1C-7" value="" style="outlineConnect=0;dashed=0;verticalLabelPosition=bottom;verticalAlign=top;align=center;html=1;shape=mxgraph.aws3.rds;fillColor=#2E73B8;gradientColor=none;" vertex="1" parent="paAZpw1mSlMERvi2zi1C-10">
          <mxGeometry x="24" width="62" height="69.75" as="geometry" />
        </mxCell>
        <mxCell id="paAZpw1mSlMERvi2zi1C-8" value="AWS RDS UAT" style="text;html=1;align=center;verticalAlign=middle;resizable=0;points=[];autosize=1;strokeColor=none;fillColor=none;" vertex="1" parent="paAZpw1mSlMERvi2zi1C-10">
          <mxGeometry y="70" width="110" height="30" as="geometry" />
        </mxCell>
        <mxCell id="paAZpw1mSlMERvi2zi1C-11" value="" style="group" vertex="1" connectable="0" parent="1">
          <mxGeometry x="666" y="330" width="110" height="100" as="geometry" />
        </mxCell>
        <mxCell id="paAZpw1mSlMERvi2zi1C-12" value="" style="outlineConnect=0;dashed=0;verticalLabelPosition=bottom;verticalAlign=top;align=center;html=1;shape=mxgraph.aws3.rds;fillColor=#2E73B8;gradientColor=none;" vertex="1" parent="paAZpw1mSlMERvi2zi1C-11">
          <mxGeometry x="24" width="62" height="69.75" as="geometry" />
        </mxCell>
        <mxCell id="paAZpw1mSlMERvi2zi1C-13" value="AWS RDS Prod" style="text;html=1;align=center;verticalAlign=middle;resizable=0;points=[];autosize=1;strokeColor=none;fillColor=none;" vertex="1" parent="paAZpw1mSlMERvi2zi1C-11">
          <mxGeometry y="70" width="110" height="30" as="geometry" />
        </mxCell>
        <mxCell id="paAZpw1mSlMERvi2zi1C-17" value="" style="group" vertex="1" connectable="0" parent="1">
          <mxGeometry x="490" y="260.5" width="130" height="88" as="geometry" />
        </mxCell>
        <mxCell id="paAZpw1mSlMERvi2zi1C-14" value="" style="points=[];aspect=fixed;html=1;align=center;shadow=0;dashed=0;fillColor=#FF6A00;strokeColor=none;shape=mxgraph.alibaba_cloud.bastionhost;" vertex="1" parent="paAZpw1mSlMERvi2zi1C-17">
          <mxGeometry x="33.420000000000016" width="63.16" height="50" as="geometry" />
        </mxCell>
        <mxCell id="paAZpw1mSlMERvi2zi1C-15" value="Bastion Host Server" style="text;html=1;align=center;verticalAlign=middle;resizable=0;points=[];autosize=1;strokeColor=none;fillColor=none;" vertex="1" parent="paAZpw1mSlMERvi2zi1C-17">
          <mxGeometry y="58" width="130" height="30" as="geometry" />
        </mxCell>
        <mxCell id="paAZpw1mSlMERvi2zi1C-29" value="" style="dashed=0;html=1;shape=mxgraph.aws3.virtual_private_cloud;fillColor=#F58536;gradientColor=none;dashed=0;" vertex="1" parent="1">
          <mxGeometry x="430" y="100" width="52" height="36" as="geometry" />
        </mxCell>
        <mxCell id="paAZpw1mSlMERvi2zi1C-6" value="" style="sketch=0;points=[[0,0,0],[0.25,0,0],[0.5,0,0],[0.75,0,0],[1,0,0],[0,1,0],[0.25,1,0],[0.5,1,0],[0.75,1,0],[1,1,0],[0,0.25,0],[0,0.5,0],[0,0.75,0],[1,0.25,0],[1,0.5,0],[1,0.75,0]];outlineConnect=0;fontColor=#232F3E;fillColor=#DD344C;strokeColor=#ffffff;dashed=0;verticalLabelPosition=bottom;verticalAlign=top;align=center;html=1;fontSize=12;fontStyle=0;aspect=fixed;shape=mxgraph.aws4.resourceIcon;resIcon=mxgraph.aws4.waf;" vertex="1" parent="1">
          <mxGeometry x="380" y="256" width="59" height="59" as="geometry" />
        </mxCell>
        <mxCell id="paAZpw1mSlMERvi2zi1C-47" value="" style="edgeStyle=orthogonalEdgeStyle;rounded=0;orthogonalLoop=1;jettySize=auto;html=1;entryX=0;entryY=0.5;entryDx=0;entryDy=0;entryPerimeter=0;" edge="1" parent="1" source="paAZpw1mSlMERvi2zi1C-14" target="paAZpw1mSlMERvi2zi1C-7">
          <mxGeometry relative="1" as="geometry">
            <Array as="points">
              <mxPoint x="640" y="286" />
              <mxPoint x="640" y="215" />
            </Array>
          </mxGeometry>
        </mxCell>
        <mxCell id="paAZpw1mSlMERvi2zi1C-48" style="edgeStyle=orthogonalEdgeStyle;rounded=0;orthogonalLoop=1;jettySize=auto;html=1;" edge="1" parent="1" source="paAZpw1mSlMERvi2zi1C-14" target="paAZpw1mSlMERvi2zi1C-12">
          <mxGeometry relative="1" as="geometry">
            <Array as="points">
              <mxPoint x="640" y="286" />
              <mxPoint x="640" y="365" />
            </Array>
          </mxGeometry>
        </mxCell>
        <mxCell id="paAZpw1mSlMERvi2zi1C-49" style="edgeStyle=orthogonalEdgeStyle;rounded=0;orthogonalLoop=1;jettySize=auto;html=1;exitX=1;exitY=0.5;exitDx=0;exitDy=0;exitPerimeter=0;entryX=0.088;entryY=0.49;entryDx=0;entryDy=0;entryPerimeter=0;" edge="1" parent="1" source="paAZpw1mSlMERvi2zi1C-6" target="paAZpw1mSlMERvi2zi1C-14">
          <mxGeometry relative="1" as="geometry" />
        </mxCell>
        <mxCell id="paAZpw1mSlMERvi2zi1C-30" value="" style="rounded=1;arcSize=10;dashed=0;fillColor=none;gradientColor=none;strokeWidth=2;" vertex="1" parent="1">
          <mxGeometry x="50" y="120" width="250" height="340" as="geometry" />
        </mxCell>
        <mxCell id="paAZpw1mSlMERvi2zi1C-20" value="" style="group" vertex="1" connectable="0" parent="1">
          <mxGeometry x="100" y="245" width="140" height="119" as="geometry" />
        </mxCell>
        <mxCell id="paAZpw1mSlMERvi2zi1C-18" value="" style="sketch=0;outlineConnect=0;fontColor=#232F3E;gradientColor=none;fillColor=#232F3D;strokeColor=none;dashed=0;verticalLabelPosition=bottom;verticalAlign=top;align=center;html=1;fontSize=12;fontStyle=0;aspect=fixed;pointerEvents=1;shape=mxgraph.aws4.traditional_server;" vertex="1" parent="paAZpw1mSlMERvi2zi1C-20">
          <mxGeometry x="47.5" width="45" height="78" as="geometry" />
        </mxCell>
        <mxCell id="paAZpw1mSlMERvi2zi1C-19" value="External Public Server" style="text;html=1;align=center;verticalAlign=middle;resizable=0;points=[];autosize=1;strokeColor=none;fillColor=none;" vertex="1" parent="paAZpw1mSlMERvi2zi1C-20">
          <mxGeometry y="89" width="140" height="30" as="geometry" />
        </mxCell>
        <mxCell id="paAZpw1mSlMERvi2zi1C-31" value="" style="dashed=0;html=1;shape=mxgraph.aws3.corporate_data_center;fillColor=#7D7C7C;gradientColor=none;dashed=0;" vertex="1" parent="1">
          <mxGeometry x="70" y="100" width="30" height="42" as="geometry" />
        </mxCell>
        <mxCell id="paAZpw1mSlMERvi2zi1C-51" value="&lt;font style=&quot;font-size: 11px;&quot;&gt;NLB + WAF&lt;/font&gt;" style="text;html=1;align=center;verticalAlign=middle;resizable=0;points=[];autosize=1;strokeColor=none;fillColor=none;" vertex="1" parent="1">
          <mxGeometry x="369.5" y="318.5" width="80" height="30" as="geometry" />
        </mxCell>
        <mxCell id="paAZpw1mSlMERvi2zi1C-52" value="TMLI Environment" style="text;html=1;align=center;verticalAlign=middle;resizable=0;points=[];autosize=1;strokeColor=none;fillColor=none;" vertex="1" parent="1">
          <mxGeometry x="470" y="90" width="120" height="30" as="geometry" />
        </mxCell>
      </root>
    </mxGraphModel>
  </diagram>
</mxfile>
